<svg width="144" height="144" viewBox="0 0 144 144" fill="none" xmlns="http://www.w3.org/2000/svg">
<path fill-rule="evenodd" clip-rule="evenodd" d="M70.542 80.6816C71.448 81.1856 72.552 81.1856 73.458 80.6816L127.458 50.6816C128.412 50.1536 129 49.1516 129 48.0596C129 46.9736 128.412 45.9656 127.458 45.4376L73.458 15.4376C72.552 14.9336 71.448 14.9336 70.542 15.4376L16.542 45.4376C15.588 45.9656 15 46.9736 15 48.0596C15 49.1516 15.588 50.1536 16.542 50.6816L70.542 80.6816ZM72 74.6276L24.18 48.0596L72 21.4916L119.82 48.0596L72 74.6276Z" fill="white" fill-opacity="0.12"/>
<path fill-rule="evenodd" clip-rule="evenodd" d="M16.5417 74.6817L70.5417 104.682C71.4477 105.186 72.5517 105.186 73.4577 104.682L127.458 74.6817C128.904 73.8777 129.426 72.0537 128.622 70.6017C127.818 69.1557 125.988 68.6337 124.542 69.4377L71.9997 98.6277L19.4577 69.4377C18.0117 68.6337 16.1817 69.1557 15.3777 70.6017C14.5737 72.0537 15.0957 73.8777 16.5417 74.6817Z" fill="white" fill-opacity="0.12"/>
<path fill-rule="evenodd" clip-rule="evenodd" d="M16.5417 98.6817L70.5417 128.682C71.4477 129.186 72.5517 129.186 73.4577 128.682L127.458 98.6817C128.904 97.8777 129.426 96.0537 128.622 94.6017C127.818 93.1557 125.988 92.6337 124.542 93.4377L71.9997 122.628L19.4577 93.4377C18.0117 92.6337 16.1817 93.1557 15.3777 94.6017C14.5737 96.0537 15.0957 97.8777 16.5417 98.6817Z" fill="white" fill-opacity="0.12"/>
</svg>
