<svg width="111" height="111" viewBox="0 0 111 111" fill="none" xmlns="http://www.w3.org/2000/svg">
<path fill-rule="evenodd" clip-rule="evenodd" d="M81.2359 19.1968C81.9341 17.5137 82.291 15.7091 82.2871 13.8871C82.2882 11.1461 81.4773 8.46625 79.9566 6.18575C78.4359 3.90525 76.2742 2.1264 73.7434 1.07376C71.2126 0.0211194 68.4265 -0.258117 65.737 0.271302C63.048 0.800721 60.5755 2.11506 58.6324 4.04839L55.5022 6.96364L52.3932 4.05795C49.7895 1.45745 46.2594 -0.00223993 42.5795 2.58004e-06C38.8996 0.00224509 35.3713 1.46624 32.7708 4.06991C30.1703 6.6736 28.7106 10.2037 28.7128 13.8836C28.7151 17.5635 30.1791 21.0918 32.7827 23.6923L54.139 45.3643C54.317 45.545 54.5292 45.6885 54.7632 45.7866C54.9972 45.8845 55.2484 45.935 55.5022 45.935C55.7559 45.935 56.0073 45.8845 56.2409 45.7866C56.4751 45.6885 56.6871 45.545 56.8653 45.3643L78.2217 23.6923C79.5137 22.4078 80.5383 20.8798 81.2359 19.1968ZM29.7639 91.8031C29.066 93.4864 28.7088 95.2907 28.7129 97.1128C28.7116 99.8539 29.5226 102.534 31.0431 104.815C32.5638 107.095 34.726 108.874 37.2568 109.926C39.7875 110.979 42.5734 111.258 45.2628 110.729C47.9522 110.199 50.4244 108.885 52.3674 106.952L55.4978 104.036L58.6069 106.942C61.2104 109.543 64.7408 111.002 68.4204 111C72.1006 110.998 75.6287 109.534 78.2295 106.93C80.8296 104.327 82.2893 100.796 82.2871 97.1167C82.2849 93.4365 80.8208 89.9083 78.2173 87.3076L56.8609 65.636C56.6833 65.455 56.4707 65.3113 56.2365 65.2136C56.0028 65.1154 55.7514 65.0649 55.4978 65.0649C55.2441 65.0649 54.993 65.1154 54.7589 65.2136C54.5249 65.3113 54.3127 65.455 54.1347 65.636L32.7785 87.3076C31.4863 88.5924 30.4617 90.1203 29.7639 91.8031ZM97.1128 82.2876C95.2907 82.2915 93.4864 81.9341 91.8031 81.2365C90.1203 80.5388 88.5924 79.5137 87.3076 78.2217L65.636 56.8659C65.455 56.6877 65.3113 56.4751 65.2136 56.2415C65.1154 56.0073 65.0649 55.7564 65.0649 55.5022C65.0649 55.2488 65.1154 54.9976 65.2136 54.7636C65.3113 54.5295 65.455 54.3173 65.636 54.1393L87.3076 32.7831C89.9083 30.1794 93.4365 28.7154 97.1167 28.7131C100.796 28.7109 104.327 30.1706 106.93 32.7711C109.534 35.3716 110.998 38.8999 111 42.5798C111.002 46.2598 109.543 49.7898 106.942 52.3935L104.036 55.5022L106.952 58.633C108.885 60.576 110.199 63.048 110.729 65.7375C111.258 68.4271 110.979 71.2126 109.926 73.7434C108.874 76.2742 107.095 78.4365 104.815 79.9572C102.534 81.4779 99.8539 82.2887 97.1128 82.2876ZM19.1968 29.7635C17.5137 29.0657 15.7091 28.7085 13.8871 28.7125C11.1461 28.7113 8.46619 29.5222 6.18575 31.0428C3.90524 32.5635 2.12639 34.7256 1.07376 37.2564C0.0211191 39.7872 -0.258117 42.5731 0.271301 45.2625C0.800721 47.9518 2.11506 50.4241 4.04839 52.367L6.96364 55.4976L4.05795 58.6063C1.45745 61.2104 -0.00223997 64.7402 2.58015e-06 68.4204C0.00224514 72.1001 1.46623 75.6282 4.06991 78.2289C6.6736 80.8297 10.2037 82.2893 13.8836 82.2871C17.5635 82.2849 21.0918 80.8208 23.6923 78.2167L45.3642 56.8609C45.545 56.6827 45.6885 56.4707 45.7865 56.2365C45.8845 56.0023 45.935 55.7514 45.935 55.4975C45.935 55.2438 45.8845 54.9926 45.7865 54.7586C45.6885 54.5246 45.545 54.3124 45.3642 54.1344L23.6923 32.7781C22.4078 31.486 20.8798 30.4613 19.1968 29.7635Z" fill="white" fill-opacity="0.37"/>
</svg>
