<svg width="108" height="108" viewBox="0 0 108 108" fill="none" xmlns="http://www.w3.org/2000/svg">
<path fill-rule="evenodd" clip-rule="evenodd" d="M67.4455 2.65525L57.132 46.439L80.7986 8.1864C81.5319 7.00169 83.1778 6.81043 84.1628 7.79549L100.205 23.8371C101.19 24.8221 100.998 26.4683 99.8136 27.2013L61.5611 50.8682L105.345 40.5545C106.701 40.2351 108 41.2639 108 42.657V65.3432C108 66.7364 106.701 67.7651 105.345 67.4455L61.5611 57.132L99.8136 80.7991C100.998 81.5319 101.19 83.1778 100.205 84.1633L84.1628 100.205C83.1778 101.19 81.5319 100.998 80.7986 99.8136L57.132 61.5611L67.4455 105.345C67.7651 106.701 66.7359 108 65.3432 108H42.6569C41.2638 108 40.2351 106.701 40.5545 105.345L50.8682 61.5611L27.2012 99.8136C26.4683 100.998 24.8221 101.19 23.837 100.205L7.79549 84.1628C6.81043 83.1778 7.00169 81.5319 8.1864 80.7986L46.4387 57.132L2.65526 67.4455C1.29927 67.7651 0 66.7364 0 65.3432V42.657C1.05254e-06 41.2639 1.29927 40.2351 2.65526 40.5545L46.4389 50.8682L8.1864 27.2013C7.00169 26.4683 6.81043 24.8221 7.79549 23.8371L23.837 7.79555C24.8221 6.81048 26.4683 7.00175 27.2012 8.18645L50.8682 46.4391L40.5545 2.65526C40.2351 1.29927 41.2638 2.10507e-06 42.6569 1.98329e-06L65.3432 0C66.7364 0 67.7651 1.29927 67.4455 2.65525ZM54 60.1717C57.4085 60.1717 60.1717 57.4085 60.1717 54C60.1717 50.5916 57.4085 47.8286 54 47.8286C50.5916 47.8286 47.8286 50.5916 47.8286 54C47.8286 57.4085 50.5916 60.1717 54 60.1717Z" fill="#FCA311"/>
</svg>
