<svg width="48" height="48" viewBox="0 0 48 48" fill="none" xmlns="http://www.w3.org/2000/svg">
<path fill-rule="evenodd" clip-rule="evenodd" d="M12.1714 0H0.17143V12C0.17143 18.1109 4.73918 23.1549 10.6466 23.904C4.65636 24.5765 1.01286e-06 29.6587 5.24537e-07 35.8286L0 47.8286H12C18.1109 47.8286 23.1549 43.2607 23.904 37.3534C24.5765 43.3438 29.6587 48 35.8286 48H47.8286V36C47.8286 29.8891 43.2607 24.845 37.3534 24.096C43.3438 23.4236 48 18.3413 48 12.1714V0.171429L36 0.171428C29.8891 0.171428 24.845 4.73918 24.096 10.6466C23.4236 4.65636 18.3413 0 12.1714 0Z" fill="white"/>
</svg>
